# xmcd
#
# Track frame offsets:
#	150
#	19862
#	44035
#	63330
#	88770
#	107855
#	130792
#	149185
#	165140
#	181785
#	197550
#
# Disc length: 2900 seconds
#
# Revision: 1
# Processed by: cddbd v1.5.1PL0 Copyright (c) Steve Scherf et al.
# Submitted via: CDex 1.50Beta5
#
DISCID=980b520b
DTITLE=Various Artist - JAZZY SOUL
DYEAR=1900
DGENRE=URBAN
TTITLE0=Head Quaters/Summer Time
TTITLE1=Pedoro Herrera/Show Me
TTITLE2=Pedoro Herrera/You're the One for Me
TTITLE3=Head Quaters/Groovein'
TTITLE4=Head Quaters/Jazz Muzik
TTITLE5=K立AME/Conscious Swing
TTITLE6=K立AME/Reclaimed
TTITLE7=Paula Abdu/I'm a Lady
TTITLE8=Paula Abdu/Lover for Loner
TTITLE9=K立AME/Calling 4 U
TTITLE10=K立AME/Praying
EXTD=
EXTT0=
EXTT1=
EXTT2=
EXTT3=
EXTT4=
EXTT5=
EXTT6=
EXTT7=
EXTT8=
EXTT9=
EXTT10=
PLAYORDER=
